<svg xmlns="http://www.w3.org/2000/svg" width="25" height="25" viewBox="0 0 25 25">
  <g id="Icon_ionic-ios-chatbubbles" data-name="Icon ionic-ios-chatbubbles" transform="translate(-3.375 -3.375)">
    <path id="Tracé_44" data-name="Tracé 44" d="M27.074,19.744a1.455,1.455,0,0,1,.2-.733,2.022,2.022,0,0,1,.126-.186A9.73,9.73,0,0,0,29.056,13.4,10.215,10.215,0,0,0,18.625,3.375,10.358,10.358,0,0,0,8.4,11.355a9.65,9.65,0,0,0-.222,2.054A10.186,10.186,0,0,0,18.445,23.563,12.366,12.366,0,0,0,21.28,23.1c.679-.186,1.351-.432,1.525-.5a1.587,1.587,0,0,1,.558-.1,1.561,1.561,0,0,1,.606.12l3.4,1.207a.812.812,0,0,0,.234.06.478.478,0,0,0,.48-.48.771.771,0,0,0-.03-.162Z" transform="translate(-0.681)" fill="#fff"/>
    <path id="Tracé_45" data-name="Tracé 45" d="M19.618,25.452c-.216.06-.492.126-.793.192a11.083,11.083,0,0,1-2.042.27A10.186,10.186,0,0,1,6.515,15.761a11.353,11.353,0,0,1,.09-1.285c.036-.258.078-.516.138-.769.06-.27.132-.54.21-.8l-.48.426a8.936,8.936,0,0,0-3.1,6.719,8.836,8.836,0,0,0,1.489,4.924c.138.21.216.372.192.48s-.715,3.723-.715,3.723a.482.482,0,0,0,.162.462.489.489,0,0,0,.306.108.431.431,0,0,0,.174-.036l3.369-1.327a.938.938,0,0,1,.721.012,10.106,10.106,0,0,0,3.645.721,9.431,9.431,0,0,0,7.212-3.309s.192-.264.414-.576C20.122,25.308,19.87,25.386,19.618,25.452Z" transform="translate(0 -1.37)" fill="#fff"/>
  </g>
</svg>
