<svg xmlns="http://www.w3.org/2000/svg" width="35.789" height="25" viewBox="0 0 35.789 25">
  <path id="Icon_metro-books" data-name="Icon metro-books" d="M9.863,8.571H3.613A1.045,1.045,0,0,0,2.571,9.613V32.53a1.045,1.045,0,0,0,1.042,1.042h6.25A1.045,1.045,0,0,0,10.9,32.53V9.613A1.045,1.045,0,0,0,9.863,8.571Zm-1.042,6.25H4.655V12.738H8.821ZM20.28,8.571H14.03a1.045,1.045,0,0,0-1.042,1.042V32.53a1.045,1.045,0,0,0,1.042,1.042h6.25a1.045,1.045,0,0,0,1.042-1.042V9.613A1.045,1.045,0,0,0,20.28,8.571Zm-1.042,6.25H15.071V12.738h4.167Zm8.239-4.639L21.9,12.994a1.045,1.045,0,0,0-.462,1.4L30.808,33a1.045,1.045,0,0,0,1.4.462l5.582-2.812a1.045,1.045,0,0,0,.462-1.4L28.876,10.644a1.045,1.045,0,0,0-1.4-.462Zm5.3,22.348a1.042,1.042,0,1,1-1.042-1.042A1.042,1.042,0,0,1,32.78,32.53Z" transform="translate(-2.571 -8.571)" fill="#fff"/>
</svg>
