<svg xmlns="http://www.w3.org/2000/svg" width="24.259" height="26.847" viewBox="0 0 24.259 26.847">
  <path id="Icon_material-share" data-name="Icon material-share" d="M24.716,21.976a3.925,3.925,0,0,0-2.642,1.038l-9.609-5.593a4.412,4.412,0,0,0,.121-.943,4.412,4.412,0,0,0-.121-.943l9.5-5.539a4.034,4.034,0,1,0-1.294-2.952,4.412,4.412,0,0,0,.121.943l-9.5,5.539a4.043,4.043,0,1,0,0,5.9l9.6,5.607a3.8,3.8,0,0,0-.108.876,3.935,3.935,0,1,0,3.935-3.935Z" transform="translate(-4.5 -3)" fill="#fff"/>
</svg>
